<?xml version="1.0" encoding="UTF-8" standalone="no"?>
<!-- Created with Inkscape (http://www.inkscape.org/) -->

<svg
   width="200mm"
   height="200mm"
   viewBox="0 0 200 200"
   version="1.1"
   id="svg5"
   inkscape:version="1.2.2 (b0a8486, 2022-12-01)"
   sodipodi:docname="game-store-logo-white.svg"
   xml:space="preserve"
   inkscape:export-filename="game-store-logo48.png"
   inkscape:export-xdpi="6.0959997"
   inkscape:export-ydpi="6.0959997"
   xmlns:inkscape="http://www.inkscape.org/namespaces/inkscape"
   xmlns:sodipodi="http://sodipodi.sourceforge.net/DTD/sodipodi-0.dtd"
   xmlns="http://www.w3.org/2000/svg"
   xmlns:svg="http://www.w3.org/2000/svg"><sodipodi:namedview
     id="namedview7"
     pagecolor="#ffffff"
     bordercolor="#000000"
     borderopacity="0.25"
     inkscape:showpageshadow="2"
     inkscape:pageopacity="0.0"
     inkscape:pagecheckerboard="0"
     inkscape:deskcolor="#d1d1d1"
     inkscape:document-units="mm"
     showgrid="false"
     inkscape:zoom="0.71181884"
     inkscape:cx="255.68303"
     inkscape:cy="319.60379"
     inkscape:window-width="1366"
     inkscape:window-height="746"
     inkscape:window-x="0"
     inkscape:window-y="22"
     inkscape:window-maximized="1"
     inkscape:current-layer="g703" /><defs
     id="defs2"><linearGradient
       id="white_logo_svg__a"
       x1="-1286.94"
       y1="4775.15"
       x2="-1101.48"
       y2="4775.15"
       gradientTransform="matrix(-0.70710678,0.70710678,0.70710678,0.70710678,-4128.2297,-2439.3601)"
       gradientUnits="userSpaceOnUse"><stop
         offset="0"
         stop-color="#3888fc"
         id="stop560" /><stop
         offset="1"
         stop-color="#1d42cf"
         id="stop562" /></linearGradient><linearGradient
       id="white_logo_svg__b"
       x1="-1258.46"
       y1="4775.15"
       x2="-1129.96"
       y2="4775.15"
       gradientTransform="matrix(-0.70710678,0.70710678,0.70710678,0.70710678,-4128.2297,-2439.3601)"
       gradientUnits="userSpaceOnUse"><stop
         offset="0"
         stop-color="#3888fc"
         id="stop565" /><stop
         offset="1"
         stop-color="#1d42cf"
         id="stop567" /></linearGradient><linearGradient
       id="white_logo_svg__c"
       x1="57"
       y1="95.35"
       x2="128.49"
       y2="95.35"
       gradientTransform="matrix(1,0,0,-1,0,188)"
       gradientUnits="userSpaceOnUse"><stop
         offset="0"
         stop-color="#3888fc"
         id="stop570" /><stop
         offset="1"
         stop-color="#1d42cf"
         id="stop572" /></linearGradient></defs><g
     inkscape:label="Layer 1"
     inkscape:groupmode="layer"
     id="layer1"
     transform="translate(-7.040534,-15.135501)"><g
       id="g9515"><g
         id="g11109" /><g
         id="g703"
         transform="translate(0,-23.010208)"><path
           id="path7980"
           style="fill:#ffffff;stroke-width:0.393502"
           d="m 108.1324,74.617387 c -36.982942,-2.01e-4 -66.963666,29.446983 -66.963459,65.771793 4e-6,0.76509 0.01771,1.52863 0.04421,2.29115 h 21.726872 c -0.06252,-0.95189 -0.09771,-1.91102 -0.09771,-2.87842 -8.3e-5,-24.32951 20.080073,-44.052665 44.850407,-44.053003 24.77062,-8.1e-5 44.85124,19.723193 44.85117,44.053003 0,0.96731 -0.036,1.92664 -0.0984,2.87842 h 22.60472 c 0.0263,-0.76251 0.045,-1.52608 0.045,-2.29115 2.1e-4,-36.32451 -29.98005,-65.771573 -66.9627,-65.771793 z" /><g
           id="g1200"
           transform="translate(3.9027889,23.084578)"><rect
             style="fill:#ffffff;stroke-width:0.358818"
             id="rect234"
             width="106.15032"
             height="54.063358"
             x="50.023651"
             y="96.061478"
             ry="0" /><circle
             style="fill:#ffffff;stroke-width:0.264583"
             id="path396"
             cx="52.796284"
             cy="122.12991"
             r="38.29855" /><circle
             style="fill:#ffffff;stroke-width:0.264583"
             id="path396-3"
             cx="155.66229"
             cy="122.12991"
             r="38.29855" /><g
             id="g608"
             style="fill:#300080;fill-opacity:1"
             transform="translate(4.8031723,89.941585)"><rect
               style="fill:#00ffff;fill-opacity:1;stroke-width:0.264583"
               id="rect476"
               width="10.269067"
               height="33.153164"
               x="39.861542"
               y="15.491687" /><rect
               style="fill:#00ffff;fill-opacity:1;stroke-width:0.264583"
               id="rect476-6"
               width="10.269067"
               height="33.153164"
               x="26.933735"
               y="-61.572659"
               transform="rotate(90)" /></g><g
             id="g1081" /><rect
             style="fill:#000000;stroke-width:0.264583"
             id="rect1083"
             width="21.262836"
             height="3.5866175"
             x="93.045563"
             y="130.1841"
             ry="1.333967" /><g
             data-name="Layer 1-2"
             id="g595"
             transform="matrix(0.26458333,0,0,0.26458333,86.037308,45.435889)"><g
               id="g658"
               transform="translate(181.07403,207.3724)"><g
                 opacity="0.1"
                 fill="#2d6cea"
                 id="g583"><path
                   d="m 92.75,185.47 c -24.79,0 -48.08,-9.64 -65.58,-27.14 C 9.66,140.82 0.02,117.53 0.02,92.75 0.02,67.97 9.66,44.67 27.16,27.16 44.67,9.66 67.96,0.02 92.75,0.02 c 24.79,0 48.08,9.64 65.58,27.14 17.5,17.5 27.14,40.8 27.14,65.58 0,24.78 -9.64,48.08 -27.14,65.58 -17.5,17.5 -40.8,27.14 -65.58,27.14 z m 0,-170.88 c -43.1,0 -78.16,35.07 -78.16,78.17 0,43.1 35.06,78.16 78.16,78.16 43.1,0 78.16,-35.06 78.16,-78.16 0,-43.1 -35.07,-78.17 -78.16,-78.17 z"
                   id="path577" /><path
                   d="M 92.75,156.99 C 57.32,156.99 28.5,128.17 28.5,92.74 28.5,57.31 57.32,28.5 92.75,28.5 128.18,28.5 157,57.32 157,92.75 157,128.18 128.18,157 92.75,157 Z m 0,-113.93 c -27.39,0 -49.68,22.29 -49.68,49.68 0,27.39 22.29,49.68 49.68,49.68 27.39,0 49.68,-22.29 49.68,-49.68 0,-27.39 -22.29,-49.68 -49.68,-49.68 z"
                   id="path579" /><path
                   d="m 92.75,128.51 c -19.72,0 -35.76,-16.04 -35.76,-35.76 0,-19.72 16.04,-35.76 35.76,-35.76 19.72,0 35.76,16.04 35.76,35.76 0,19.72 -16.04,35.76 -35.76,35.76 z m 0,-56.96 c -11.69,0 -21.2,9.51 -21.2,21.2 0,11.69 9.51,21.2 21.2,21.2 11.69,0 21.2,-9.51 21.2,-21.2 0,-11.69 -9.51,-21.2 -21.2,-21.2 z"
                   id="path581" /></g><path
                 d="m 32.33,160.45 c -1.86,0 -3.73,-0.71 -5.15,-2.13 C 9.65,140.79 0,117.5 0,92.75 0,68 9.65,44.71 27.18,27.18 44.71,9.65 67.99,0 92.75,0 c 24.76,0 48.04,9.65 65.57,27.18 17.53,17.53 27.18,40.81 27.18,65.57 0,24.76 -9.65,48.04 -27.18,65.57 -2.84,2.84 -7.46,2.84 -10.3,0 -2.84,-2.84 -2.84,-7.46 0,-10.3 14.78,-14.78 22.91,-34.4 22.91,-55.27 0,-20.87 -8.14,-40.49 -22.91,-55.27 C 133.24,22.7 113.62,14.57 92.75,14.57 71.88,14.57 52.26,22.71 37.48,37.48 22.7,52.26 14.57,71.88 14.57,92.75 c 0,20.87 8.14,40.49 22.91,55.27 2.84,2.84 2.84,7.46 0,10.3 a 7.269,7.269 0 0 1 -5.15,2.13 z"
                 fill="url(#white_logo_svg__a)"
                 id="path585"
                 style="fill:url(#white_logo_svg__a)" /><path
                 d="m 133.03,140.31 c -1.86,0 -3.73,-0.71 -5.15,-2.13 -2.84,-2.84 -2.84,-7.46 0,-10.3 19.37,-19.37 19.37,-50.89 0,-70.26 -19.37,-19.37 -50.89,-19.37 -70.26,0 -9.39,9.39 -14.56,21.87 -14.56,35.13 0,13.26 5.17,25.74 14.56,35.13 2.84,2.84 2.84,7.46 0,10.3 -2.84,2.84 -7.46,2.84 -10.3,0 -25.05,-25.05 -25.05,-65.81 0,-90.86 25.05,-25.05 65.81,-25.05 90.86,0 25.05,25.05 25.05,65.81 0,90.86 a 7.269,7.269 0 0 1 -5.15,2.13 z"
                 fill="url(#white_logo_svg__b)"
                 id="path587"
                 style="fill:url(#white_logo_svg__b)" /><path
                 d="m 112.89,120.17 c -1.86,0 -3.73,-0.71 -5.15,-2.13 -2.84,-2.84 -2.84,-7.46 0,-10.3 4.01,-4.01 6.22,-9.33 6.22,-14.99 0,-3.24 -0.72,-6.37 -2.1,-9.21 L 97.7,97.7 c -1.37,1.37 -3.22,2.13 -5.15,2.13 -1.93,0 -3.78,-0.77 -5.15,-2.13 L 73.52,83.82 c -3.63,7.84 -2.22,17.46 4.24,23.91 2.84,2.84 2.84,7.46 0,10.3 -2.84,2.84 -7.46,2.84 -10.3,0 -13.94,-13.94 -13.94,-36.63 0,-50.58 1.37,-1.37 3.22,-2.13 5.15,-2.13 1.93,0 3.78,0.77 5.15,2.13 l 14.79,14.79 14.98,-14.98 a 7.296,7.296 0 0 1 10.12,-0.18 c 0.13,0.12 0.26,0.25 0.39,0.37 13.94,13.94 13.94,36.63 0,50.58 a 7.269,7.269 0 0 1 -5.15,2.13 z"
                 fill="url(#white_logo_svg__c)"
                 id="path589"
                 style="fill:url(#white_logo_svg__c)" /></g></g></g><path
           sodipodi:type="star"
           style="fill:#000000;fill-opacity:1;stroke-width:0.264583"
           id="path11093"
           inkscape:flatsided="false"
           sodipodi:sides="3"
           sodipodi:cx="536.86005"
           sodipodi:cy="59.162148"
           sodipodi:r1="173.11963"
           sodipodi:r2="86.559814"
           sodipodi:arg1="-1.4619679"
           sodipodi:arg2="-0.41477037"
           inkscape:rounded="0"
           inkscape:randomized="0"
           d="M 555.66322,-112.93331 616.08036,24.280292 676.4975,161.4939 527.45846,145.20988 378.41942,128.92585 467.04132,7.9962733 Z"
           transform="matrix(0.00461748,0.04716425,-0.04716425,0.00461748,106.4325,112.537)"
           inkscape:transform-center-x="-2.010974"
           inkscape:transform-center-y="-0.046094005" /></g></g></g></svg>
